:version 1.10
:name ASF
:units
  mass 1
  length 1
  angle deg
:documentation
  ASF file generated by Kaydara
:root
  axis xyz
  order  tx ty tz rx ry rz
  position 0 0 0
  orientation 0 0 0
:bonedata
  begin
    id 1
    name LeftUpLegDummy
    direction 1 -2.30186e-007 -8.31532e-007
    length 2.93387
    axis 0 0 0 xyz
  end
  begin
    id 2
    name LeftUpLeg
    direction -1.82929e-007 -1 -1.48925e-009
    length 17.3336
    axis -3.48766 0.00143442 -0.000521554 xyz
    dof rx ry rz
  end
  begin
    id 3
    name LeftLeg
    direction -1.82929e-007 -1 -5.23717e-011
    length 14.9995
    axis 3.68178 -0.00654042 -0.000282425 xyz
    dof rx ry rz
  end
  begin
    id 4
    name LeftFoot
    direction 8.31532e-007 -4.54534e-011 1
    length 6.74421
    axis 1.87234e-006 4.66016e-005 -5.96866e-006 xyz
    dof rx ry rz
  end
  begin
    id 5
    name LeftToes
    direction 0.00818058 -0.00485161 0.999955
    length 3.85048
    axis 1.06247e-005 4.65869e-005 -5.96999e-006 xyz
    dof rx ry rz
  end
  begin
    id 6
    name SpineDummy
    direction -5.8607e-008 0.943407 -0.331637
    length 5.93572
    axis 0 0 0 xyz
  end
  begin
    id 7
    name Spine
    direction -1.04988e-007 0.999988 0.00495137
    length 10.1015
    axis -0.001389 0.000121417 6.61666e-006 xyz
    dof rx ry rz
  end
  begin
    id 8
    name Spine1
    direction 0 0 0
    length 0
    axis -0.001389 0.00012144 6.56766e-006 xyz
    dof rx ry rz
  end
  begin
    id 9
    name RightShoulderDummy
    direction -0.98348 0.17941 -0.0240696
    length 3.59882
    axis -0.001389 0.00012144 6.56766e-006 xyz
  end
  begin
    id 10
    name RightShoulder
    direction -0.978693 0.204882 0.0135597
    length 2.70001
    axis 0.215806 0.000203631 -0.00679732 xyz
    dof rx ry rz
  end
  begin
    id 11
    name RightArm
    direction -1 3.85509e-006 8.31394e-007
    length 10.2459
    axis -23.2009 -0.134239 -0.964098 xyz
    dof rx ry rz
  end
  begin
    id 12
    name RightForeArm
    direction -1 3.85569e-006 8.3129e-007
    length 8.16799
    axis -9.92322 0.0658061 0.17887 xyz
    dof rx ry rz
  end
  begin
    id 13
    name RightHand
    direction -0.992843 -0.0414604 0.112003
    length 5.28593
    axis -0.00960638 0.00330669 -0.185225 xyz
    dof rx ry rz
  end
  begin
    id 14
    name LeftShoulder1Dummy
    direction 0.983523 0.179172 -0.0240748
    length 3.59866
    axis -0.001389 0.00012144 6.56766e-006 xyz
  end
  begin
    id 15
    name LeftShoulder1
    direction 0.978627 0.205195 0.0135605
    length 2.70019
    axis -0.001389 0.00012144 6.57583e-006 xyz
    dof rx ry rz
  end
  begin
    id 16
    name LeftArm
    direction 1 3.51895e-006 -8.60188e-007
    length 10.2459
    axis -23.1894 0.134785 0.967513 xyz
    dof rx ry rz
  end
  begin
    id 17
    name LeftForeArm
    direction 1 3.51921e-006 -7.32029e-007
    length 8.16799
    axis -9.91835 -0.0656957 -0.177789 xyz
    dof rx ry rz
  end
  begin
    id 18
    name LeftHand
    direction 0.992938 -0.0411636 0.11126
    length 5.32135
    axis -0.00960237 -0.00340661 0.185177 xyz
    dof rx ry rz
  end
  begin
    id 19
    name HEadDummy
    direction 1.01974e-006 0.999861 -0.016675
    length 2.99946
    axis -0.001389 0.00012144 6.56766e-006 xyz
  end
  begin
    id 20
    name HEad
    direction -0.0222689 0.980941 0.193023
    length 5.12695
    axis -0.001389 0.00012144 6.56766e-006 xyz
    dof rx ry rz
  end
  begin
    id 21
    name RightUpLegDummy
    direction -1 2.30186e-007 8.31532e-007
    length 2.93387
    axis 0 0 0 xyz
  end
  begin
    id 22
    name RightUpLeg
    direction -1.82966e-007 -1 1.56832e-007
    length 17.3336
    axis -3.4909 -0.000906625 0.00028951 xyz
    dof rx ry rz
  end
  begin
    id 23
    name RightLeg
    direction -1.82786e-007 -1 -1.80317e-007
    length 14.9995
    axis 3.68513 0.0193739 -0.131021 xyz
    dof rx ry rz
  end
  begin
    id 24
    name RightFoot
    direction 8.31721e-007 -4.63324e-011 1
    length 6.74421
    axis 4.81691e-005 -0.120479 -0.188785 xyz
    dof rx ry rz
  end
  begin
    id 25
    name RightToes
    direction 0.00124746 -0.014064 0.9999
    length 3.85082
    axis 0.000481921 0.542163 -0.142575 xyz
    dof rx ry rz
  end
:hierarchy
  begin
    root LeftUpLegDummy SpineDummy RightUpLegDummy
    LeftUpLegDummy LeftUpLeg
    LeftUpLeg LeftLeg
    LeftLeg LeftFoot
    LeftFoot LeftToes
    SpineDummy Spine
    Spine Spine1
    Spine1 RightShoulderDummy LeftShoulder1Dummy HEadDummy
    RightShoulderDummy RightShoulder
    RightShoulder RightArm
    RightArm RightForeArm
    RightForeArm RightHand
    LeftShoulder1Dummy LeftShoulder1
    LeftShoulder1 LeftArm
    LeftArm LeftForeArm
    LeftForeArm LeftHand
    HEadDummy HEad
    RightUpLegDummy RightUpLeg
    RightUpLeg RightLeg
    RightLeg RightFoot
    RightFoot RightToes
  end

:SAMPLES-PER-SECOND 30
:FULLY-SPECIFIED
:DEGREES
224
root  1.90902 34.5958 30.1153 6.60677 10.9933 -0.511329
LeftUpLeg  -11.0025 6.29645 2.94536
LeftLeg  10.7456 0.0966698 0.0107363
LeftFoot  3.08664 -0.0053877 0.0354829
LeftToes  -17.1353 2.60077e-006 -1.42232e-007
Spine  1.62764 3.60892 -1.15844
Spine1  2.78943 7.48334 -2.28629
RightShoulder  0.0652324 4.69463 4.00488
RightArm  -18.8336 3.50664 78.5733
RightForeArm  53.3648 75.7601 44.4945
RightHand  1.23156 -5.17011 -26.3783
LeftShoulder1  0.0411633 0.552532 -9.41878
LeftArm  -20.6864 11.1445 -67.9632
LeftForeArm  29.7379 -17.4267 -3.16547
LeftHand  0.0756588 2.69796 2.80915
HEad  -7.33996 3.6444 -4.76206
RightUpLeg  -10.0947 -9.32455 -3.09653
RightLeg  10.0435 7.96049 0.886785
RightFoot  3.39899 -0.015088 0.548283
RightToes  -31.7923 -0.163417 -0.268311
225
root  1.9045 34.609 30.1087 6.58957 11.5379 -0.668911
LeftUpLeg  -11.0392 6.11338 3.09946
LeftLeg  10.561 -0.198898 -0.0252169
LeftFoot  3.32118 -0.00403832 0.0159885
LeftToes  -17.0908 2.60077e-006 -1.42232e-007
Spine  1.58306 3.62014 -1.35624
Spine1  2.66628 7.48964 -2.65892
RightShoulder  0.0650397 4.7597 3.8168
RightArm  -20.7655 3.6733 78.3843
RightForeArm  51.8497 75.7063 44.2715
RightHand  1.32674 -5.74321 -25.5974
LeftShoulder1  0.0423711 0.549234 -9.41225
LeftArm  -20.6767 10.0719 -67.5601
LeftForeArm  29.9022 -17.6039 -3.19972
LeftHand  0.0768555 2.63897 2.93988
HEad  -7.06414 2.92612 -4.53006
RightUpLeg  -10.0351 -9.71623 -2.91221
RightLeg  9.99404 7.81372 0.863743
RightFoot  3.56692 -0.0159032 0.560741
RightToes  -31.6709 -0.162855 -0.267608
226
root  1.91259 34.6163 30.0969 6.58888 12.0512 -0.805289
LeftUpLeg  -11.0973 6.11442 3.1923
LeftLeg  10.3818 -0.608258 -0.0726522
LeftFoot  3.521 -0.00206795 -0.0131888
LeftToes  -17.0894 2.60077e-006 -1.42232e-007
Spine  1.5322 3.59591 -1.53333
Spine1  2.53519 7.4207 -2.98655
RightShoulder  0.0648029 4.83491 3.64819
RightArm  -22.5109 3.56646 77.8373
RightForeArm  49.8088 75.6981 44.2349
RightHand  1.38124 -6.27376 -24.4149
LeftShoulder1  0.0435852 0.504104 -9.47203
LeftArm  -20.8306 9.21508 -67.1945
LeftForeArm  29.9531 -17.6342 -3.20556
LeftHand  0.076755 2.59217 2.95205
HEad  -6.86917 2.14062 -4.38822
RightUpLeg  -10.0253 -10.146 -2.7795
RightLeg  10.0219 7.76479 0.862176
RightFoot  3.6534 -0.0163752 0.568005
RightToes  -31.5489 -0.162517 -0.267159
227
root  1.93584 34.6223 30.0848 6.59604 12.5615 -0.903904
LeftUpLeg  -11.1666 6.19353 3.21081
LeftLeg  10.2358 -1.07667 -0.124876
LeftFoot  3.6538 0.000261574 -0.0479805
LeftToes  -17.0314 2.60077e-006 -1.42232e-007
Spine  1.52435 3.51513 -1.68
Spine1  2.50096 7.23743 -3.25272
RightShoulder  0.0645379 4.88738 3.49923
RightArm  -23.467 3.00098 76.9324
RightForeArm  49.9387 76.187 46.3369
RightHand  1.48239 -6.96042 -23.6268
LeftShoulder1  0.0447717 0.502399 -9.5791
LeftArm  -21.023 8.54294 -66.8997
LeftForeArm  30.0304 -17.6308 -3.20486
LeftHand  0.0766982 2.59037 2.99121
HEad  -6.72807 1.42967 -4.42841
RightUpLeg  -10.1184 -10.6483 -2.72908
RightLeg  10.286 7.84786 0.907842
RightFoot  3.66174 -0.0167176 0.573418
RightToes  -31.737 -0.162454 -0.267045
228
root  1.9696 34.6276 30.074 6.56747 13.116 -1.02634
LeftUpLeg  -11.2834 6.06249 3.26163
LeftLeg  10.289 -1.44632 -0.168699
LeftFoot  3.64778 0.00207509 -0.0747869
LeftToes  -16.9663 2.60077e-006 -1.42232e-007
Spine  1.55892 3.37972 -1.78981
Spine1  2.56222 6.95048 -3.45531
RightShoulder  0.0637076 5.02331 3.42144
RightArm  -24.3561 1.81254 75.9538
RightForeArm  52.7131 77.185 51.4579
RightHand  1.55312 -7.68216 -22.4385
LeftShoulder1  0.045897 0.477959 -9.69698
LeftArm  -21.229 8.0943 -66.638
LeftForeArm  30.1357 -17.6038 -3.19956
LeftHand  0.0774654 2.49751 3.0439
HEad  -6.77492 0.843783 -4.47837
RightUpLeg  -10.2139 -10.8443 -2.69803
RightLeg  10.65 7.628 0.931531
RightFoot  3.61657 -0.0152596 0.551064
RightToes  -31.6519 -0.162719 -0.267347
229
root  2.00604 34.6362 30.0714 6.48289 13.5649 -1.22324
LeftUpLeg  -11.3236 6.15909 3.38483
LeftLeg  10.3183 -1.95213 -0.228275
LeftFoot  3.63921 0.00445031 -0.110357
LeftToes  -17.0918 2.60077e-006 -1.42232e-007
Spine  1.61719 3.25873 -1.85266
Spine1  2.68288 6.69908 -3.577
RightShoulder  0.0624427 5.1573 3.44041
RightArm  -25.6424 0.198176 75.0926
RightForeArm  57.9669 78.2274 58.6515
RightHand  1.57369 -8.35797 -20.9048
LeftShoulder1  0.0469274 0.487576 -9.72451
LeftArm  -21.4008 7.9191 -66.5331
LeftForeArm  30.2066 -17.5966 -3.19812
LeftHand  0.0780531 2.54745 3.13767
HEad  -6.91275 0.0724724 -4.32471
RightUpLeg  -10.2443 -10.8318 -2.6173
RightLeg  10.9485 7.36109 0.937931
RightFoot  3.70558 -0.0146497 0.542077
RightToes  -32.1091 -0.163365 -0.268145
230
root  2.05268 34.6439 30.073 6.44673 13.8951 -1.39011
LeftUpLeg  -11.2603 6.18241 3.46279
LeftLeg  10.1077 -2.26311 -0.255985
LeftFoot  3.67421 0.00611137 -0.134864
LeftToes  -17.1406 2.60077e-006 -1.42232e-007
Spine  1.64181 3.1843 -1.91779
Spine1  2.74205 6.54263 -3.70856
RightShoulder  0.0611057 5.35926 3.48321
RightArm  -26.99 -1.83822 74.0708
RightForeArm  65.2526 79.087 67.454
RightHand  1.58254 -8.91363 -19.7123
LeftShoulder1  0.047829 0.50333 -9.65683
LeftArm  -21.5451 8.07188 -66.5557
LeftForeArm  30.3625 -17.5622 -3.19137
LeftHand  0.0787353 2.53715 3.17572
HEad  -7.01701 -0.907102 -3.95338
RightUpLeg  -10.3086 -10.8501 -2.63145
RightLeg  11.2264 7.52195 0.995258
RightFoot  3.78993 -0.0157913 0.5605
RightToes  -32.5841 -0.164445 -0.269519
231
root  2.11429 34.6462 30.0774 6.44075 14.1532 -1.50741
LeftUpLeg  -11.1827 6.09932 3.47457
LeftLeg  9.89092 -2.40811 -0.263056
LeftFoot  3.65376 0.00693905 -0.146457
LeftToes  -17.1185 2.60077e-006 -1.42232e-007
Spine  1.66234 3.15152 -1.99608
Spine1  2.79642 6.46998 -3.86707
RightShoulder  0.0596153 5.62647 3.64391
RightArm  -28.683 -3.84492 72.7826
RightForeArm  72.0064 79.5736 75.4837
RightHand  1.57045 -9.44661 -18.4542
LeftShoulder1  0.0485683 0.52816 -9.52304
LeftArm  -21.7005 8.40274 -66.6739
LeftForeArm  30.4622 -17.4941 -3.17812
LeftHand  0.0783252 2.54263 3.08595
HEad  -7.14121 -2.00062 -3.45791
RightUpLeg  -10.3549 -11.0283 -2.7438
RightLeg  11.4428 8.0634 1.09731
RightFoot  3.83135 -0.0182553 0.599696
RightToes  -33.1234 -0.16601 -0.273078
232
root  2.18754 34.6426 30.0774 6.40616 14.3349 -1.61225
LeftUpLeg  -11.1868 5.90604 3.47789
LeftLeg  9.94717 -2.43691 -0.268613
LeftFoot  3.465 0.00681502 -0.143296
LeftToes  -17.0566 2.60077e-006 -1.42232e-007
Spine  1.68944 3.16827 -2.06438
Spine1  2.86097 6.49576 -4.0005
RightShoulder  0.0578631 5.91892 3.83695
RightArm  -30.7079 -5.72125 71.3827
RightForeArm  74.5028 79.7117 78.9543
RightHand  1.53858 -9.64733 -17.6999
LeftShoulder1  0.0491116 0.586855 -9.52205
LeftArm  -21.6865 8.8021 -66.7039
LeftForeArm  30.5844 -17.3569 -3.15149
LeftHand  0.0782626 2.56496 3.00917
HEad  -6.99807 -3.2646 -2.91792
RightUpLeg  -10.3696 -11.0427 -2.92442
RightLeg  11.6414 8.63046 1.20423
RightFoot  3.85602 -0.0207587 0.639769
RightToes  -33.6353 -0.169739 -0.276516
233
root  2.26902 34.6335 30.0723 6.32681 14.4928 -1.67626
LeftUpLeg  -11.2509 5.78971 3.44685
LeftLeg  10.257 -2.59406 -0.300084
LeftFoot  3.15263 0.00709766 -0.146492
LeftToes  -16.8876 2.60077e-006 -1.42232e-007
Spine  1.72043 3.21167 -2.15665
Spine1  2.92857 6.57774 -4.18237
RightShoulder  0.0557284 6.31887 4.12161
RightArm  -33.1782 -7.41751 69.9267
RightForeArm  70.1944 79.5865 75.7286
RightHand  1.5316 -9.74335 -17.4441
LeftShoulder1  0.049425 0.718992 -9.57747
LeftArm  -21.795 9.1818 -66.6572
LeftForeArm  30.8946 -17.0872 -3.09923
LeftHand  0.0786736 2.61776 2.97467
HEad  -6.56001 -4.50597 -2.27684
RightUpLeg  -10.3366 -10.8518 -3.16362
RightLeg  11.844 8.94331 1.27962
RightFoot  3.81236 -0.0214708 0.652332
RightToes  -34.1015 -0.173448 -0.279438
234
root  2.3562 34.6207 30.0658 6.26756 14.686 -1.67536
LeftUpLeg  -11.2408 5.85399 3.32984
LeftLeg  10.3902 -2.94633 -0.347598
LeftFoot  2.88597 0.00751976 -0.151895
LeftToes  -16.902 2.60077e-006 -1.42232e-007
Spine  1.73965 3.23865 -2.27272
Spine1  2.97882 6.61872 -4.39864
RightShoulder  0.0531591 6.66701 4.43734
RightArm  -36.1003 -8.64749 68.4476
RightForeArm  60.2128 79.025 66.6128
RightHand  1.50524 -9.8328 -16.9847
LeftShoulder1  0.0494749 0.812328 -9.61388
LeftArm  -22.2608 9.64377 -66.5848
LeftForeArm  31.2752 -16.7378 -3.03175
LeftHand  0.080342 2.65388 3.03876
HEad  -6.37961 -5.76452 -1.69929
RightUpLeg  -10.3252 -10.5935 -3.40158
RightLeg  12.0867 8.81193 1.2989
RightFoot  3.69938 -0.0194735 0.623157
RightToes  -34.5589 -0.176541 -0.28144
235
root  2.4475 34.5974 30.0553 6.23414 15.0003 -1.61791
LeftUpLeg  -11.312 5.88701 3.14434
LeftLeg  10.6331 -3.36042 -0.410694
LeftFoot  2.54344 0.00770549 -0.153663
LeftToes  -16.9645 2.60077e-006 -1.42232e-007
Spine  1.78298 3.22116 -2.37523
Spine1  3.08392 6.56652 -4.57639
RightShoulder  0.0492667 6.96054 4.74025
RightArm  -39.1587 -9.53104 66.8091
RightForeArm  49.7635 78.0783 57.3985
RightHand  1.52095 -9.93809 -16.9794
LeftShoulder1  0.0492275 0.921435 -9.76443
LeftArm  -22.8445 10.1176 -66.4238
LeftForeArm  31.5811 -16.4436 -2.97515
LeftHand  0.0819155 2.67541 3.07686
HEad  -6.51636 -7.1785 -1.32493
RightUpLeg  -10.315 -10.2324 -3.58701
RightLeg  12.3054 7.98671 1.20911
RightFoot  3.49305 -0.013774 0.536851
RightToes  -34.7288 -0.177803 -0.28288
236
root  2.54066 34.5674 30.0371 6.16106 15.4827 -1.47835
LeftUpLeg  -11.5099 5.77598 2.88063
LeftLeg  11.1911 -3.84123 -0.507243
LeftFoot  2.09378 0.00729572 -0.146218
LeftToes  -16.6876 2.60077e-006 -1.42232e-007
Spine  1.83901 3.1524 -2.47079
Spine1  3.22267 6.41088 -4.73577
RightShoulder  0.0445163 7.15791 4.91034
RightArm  -42.8686 -10.2009 65.5254
RightForeArm  38.9011 76.5836 48.1558
RightHand  1.55648 -10.1908 -16.9431
LeftShoulder1  0.0486493 0.933247 -9.98191
LeftArm  -23.3411 10.6579 -66.1168
LeftForeArm  31.7154 -16.1745 -2.9236
LeftHand  0.0837799 2.69278 3.13895
HEad  -6.4982 -8.71177 -1.13911
RightUpLeg  -10.1218 -9.31188 -3.83796
RightLeg  12.2876 6.35234 0.960879
RightFoot  3.2882 -0.00538202 0.409107
RightToes  -34.8016 -0.179408 -0.283915
237
root  2.63298 34.5383 30.0149 6.00848 16.0765 -1.35727
LeftUpLeg  -11.6657 5.36545 2.67031
LeftLeg  11.7819 -4.1975 -0.598209
LeftFoot  1.65824 0.00617982 -0.127839
LeftToes  -16.552 2.60077e-006 -1.42232e-007
Spine  1.87671 3.03244 -2.54499
Spine1  3.32676 6.16083 -4.86724
RightShoulder  0.0396793 7.36082 5.10677
RightArm  -47.2658 -10.5442 64.4839
RightForeArm  27.9886 74.0394 38.362
RightHand  1.46856 -10.1505 -16.0429
LeftShoulder1  0.0477063 0.954743 -10.1508
LeftArm  -23.7407 11.2634 -65.7494
LeftForeArm  32.026 -15.8515 -2.86184
LeftHand  0.0853516 2.7137 3.18143
HEad  -6.20492 -10.3081 -0.859636
RightUpLeg  -9.88841 -8.66584 -4.09153
RightLeg  12.4056 4.89589 0.751611
RightFoot  2.97257 0.0021297 0.295398
RightToes  -34.7523 -0.181218 -0.284724
238
root  2.72603 34.5121 29.9899 5.90184 16.5467 -1.23874
LeftUpLeg  -11.8499 5.09694 2.44946
LeftLeg  12.3739 -4.56172 -0.69806
LeftFoot  1.22933 0.00468841 -0.103667
LeftToes  -16.3792 2.60077e-006 -1.42232e-007
Spine  1.87844 2.89773 -2.5944
Spine1  3.35855 5.88209 -4.94843
RightShoulder  0.0354655 7.52142 5.35423
RightArm  -51.8675 -10.2543 63.5249
RightForeArm  18.965 70.5479 30.1294
RightHand  1.31809 -9.99566 -14.6076
LeftShoulder1  0.046365 1.0587 -10.4437
LeftArm  -24.1072 11.9167 -65.2925
LeftForeArm  32.3585 -15.5183 -2.79833
LeftHand  0.0877357 2.72775 3.30542
HEad  -5.8535 -12.3438 -0.403521
RightUpLeg  -9.79019 -8.01816 -4.36417
RightLeg  12.6488 3.7104 0.58618
RightFoot  2.78921 0.006996 0.221527
RightToes  -35.1864 -0.183094 -0.28539
